<svg width="185" height="248" viewBox="0 0 185 248" fill="none" xmlns="http://www.w3.org/2000/svg">
<path d="M391 102.5C391 130.105 374.356 165.864 344.065 194.782C313.836 223.641 270.192 245.5 216.5 245.5C162.75 245.5 109.024 223.594 68.7214 194.605C48.5791 180.117 31.8545 163.905 20.1843 147.862C8.4879 131.782 2 116.056 2 102.5C2 75.3167 23.1616 50.2171 58.4785 31.7948C93.6985 13.423 142.493 2 196.5 2C250.507 2 299.301 13.423 334.522 31.7948C369.838 50.2171 391 75.3167 391 102.5Z" stroke="#9D3B90" stroke-width="4"/>
<path d="M338 106.5C338 108.5 337.041 111.091 334.881 114.207C332.746 117.289 329.569 120.694 325.464 124.277C317.257 131.44 305.54 139.144 291.627 146.235C263.785 160.425 227.474 172 193.5 172C159.598 172 134.427 160.473 117.751 146.484C109.404 139.482 103.191 131.868 99.076 124.78C94.9392 117.655 93 111.199 93 106.5C93 101.749 94.3388 98.2935 97.1595 95.6207C100.07 92.8631 104.765 90.7381 111.89 89.1878C126.165 86.0821 149.05 85.5 183.5 85.5C217.88 85.5 256.912 86.0735 287.329 89.2229C302.556 90.7995 315.494 93.01 324.579 96.0646C329.13 97.5949 332.571 99.2913 334.84 101.122C337.083 102.933 338 104.715 338 106.5Z" stroke="#FB7F47" stroke-width="4"/>
<path d="M281 106C281 119.862 273.955 143.691 258.261 164.048C242.629 184.327 218.548 201 184.5 201C150.28 201 112.306 184.171 82.7973 163.628C68.067 153.373 55.5384 142.256 46.7167 131.97C42.3053 126.826 38.8522 121.927 36.5112 117.482C34.1574 113.011 33 109.136 33 106C33 99.524 36.1717 93.1687 42.2984 87.1907C48.4316 81.2064 57.4102 75.7251 68.6675 71.0792C91.1729 61.7913 122.402 56 157 56C191.598 56 222.827 61.7913 245.332 71.0792C256.59 75.7251 265.568 81.2064 271.702 87.1907C277.828 93.1687 281 99.524 281 106Z" stroke="#AF5C7B" stroke-width="4"/>
</svg>
