<svg width="80" height="60" viewBox="0 0 80 60" fill="none" xmlns="http://www.w3.org/2000/svg">
<path d="M80 16H66V44H80V16Z" fill="#E73040"/>
<path d="M56.7346 1.25927L56.7346 10L39.9999 20L33.4693 14.9632L56.7346 1.25927Z" fill="#E73040"/>
<path d="M56.7346 1.25933L56.7346 10L72 20L80 16L56.7346 1.25933Z" fill="#E73040"/>
<rect y="16" width="14" height="28" fill="#E73040"/>
<path d="M23.2653 1.25929L23.2653 10L8 20L2.18759e-05 16L23.2653 1.25929Z" fill="#E73040"/>
<path d="M0 44L8 40L23.2653 50L23.2653 59.2192L0 44Z" fill="#E73040"/>
<path d="M23.2642 59.2192L23.2642 50L41.0001 40L46.5295 44.878L23.2642 59.2192Z" fill="#E73040"/>
<path d="M39.9997 48.8984L39.9996 40.6712C39.9996 40.6712 54.1172 31.1847 56.6504 29.8515C59.1836 28.5184 60.4079 30.8554 60.4079 30.8554C60.4079 30.8554 61.6324 33.1925 59.1835 35.5296C56.7347 37.8667 39.9997 48.8984 39.9997 48.8984Z" fill="#E73040"/>
<path d="M40.0001 11.1016L40.0001 20C40.0001 20 25.8671 29.6217 23.3339 30.9549C20.8007 32.2881 19.5764 29.951 19.5764 29.951C19.5764 29.951 18.5512 27.3371 21.0001 25C23.449 22.6629 40.0001 11.1016 40.0001 11.1016Z" fill="#E73040"/>
<path d="M46.5308 14.9632L40.0002 20L23.2644 10L23.2644 1.2593L46.5308 14.9632Z" fill="#E73040"/>
<path d="M33.4694 44.8779L41.0001 40L56.7347 50L56.7347 59.2191L33.4694 44.8779Z" fill="#E73040"/>
<path d="M80 44L72 40L56.7347 50L56.7347 55.0124L56.7347 59.2192L80 44Z" fill="#E73040"/>
</svg>
