<svg width="96" height="101" viewBox="0 0 96 101" fill="none" xmlns="http://www.w3.org/2000/svg">
<path d="M46 54C60.9117 54 73 42.8071 73 29C73 15.1929 60.9117 4 46 4C31.0883 4 19 15.1929 19 29C19 42.8071 31.0883 54 46 54Z" stroke="#FB7F47" stroke-width="7" stroke-linecap="round" stroke-linejoin="round"/>
<path d="M10.9732 97H84.9165C86.2491 97.0035 87.5547 96.646 88.678 95.97C89.8012 95.2939 90.6947 94.3279 91.2521 93.1868C91.8095 92.0457 92.0074 90.7776 91.8222 89.5335C91.637 88.2894 91.0765 87.1217 90.2074 86.1694C85.1276 80.2076 78.6933 75.3965 71.3789 72.0908C64.0645 68.7851 56.0564 67.069 47.9448 67.069C39.8333 67.069 31.8252 68.7851 24.5108 72.0908C17.1963 75.3965 10.7621 80.2076 5.68234 86.1694C4.81324 87.1217 4.25272 88.2894 4.0675 89.5335C3.88228 90.7776 4.08016 92.0457 4.63759 93.1868C5.19503 94.3279 6.08853 95.2939 7.21174 95.97C8.33496 96.646 9.64057 97.0035 10.9732 97Z" stroke="#FB7F47" stroke-width="7" stroke-linecap="round" stroke-linejoin="round"/>
</svg>
